<svg viewBox="0 0 1024 1024" xmlns="http://www.w3.org/2000/svg"><path d="m191.687 127.78h638.956zm351.426 351.425v479.177c117.142-.406 234.284-5.284 351.426-63.856l-63.897-766.746c-319.477-127.793-319.477-127.793-638.955 0l-63.897 766.745c117.143 58.572 234.285 63.448 351.427 63.856v-479.176h-255.582v-95.843h575.06v95.843zm95.843 255.583h-31.948v-31.948h31.948zm0-63.896h-31.948v-31.948h31.948zm0-63.896h-31.948v-31.948h31.948zm63.896 127.792h-31.948v-31.948h31.948zm0-63.896h-31.948v-31.948h31.948zm0-63.896h-31.948v-31.948h31.948zm63.895 127.792h-31.947v-31.948h31.947zm0-63.896h-31.947v-31.948h31.947zm0-63.896h-31.947v-31.948h31.947zm-383.373-31.946h31.948v31.947h-31.948zm0 63.894h31.948v31.948h-31.948zm0 63.896h31.948v31.948h-31.948zm-63.896-127.79h31.948v31.947h-31.948zm0 63.894h31.948v31.948h-31.948zm0 63.896h31.948v31.948h-31.948zm-63.896-127.79h31.948v31.947h-31.948zm0 63.894h31.948v31.948h-31.948zm0 63.896h31.948v31.948h-31.948zm63.896-351.426c-8.822 0-15.975-7.15-15.975-15.975s7.15-15.976 15.975-15.976 15.975 7.15 15.975 15.975-7.153 15.974-15.975 15.974zm95.843 0c-8.82 0-15.974-7.15-15.974-15.975s7.15-15.976 15.975-15.976 15.976 7.15 15.976 15.975-7.153 15.974-15.975 15.974zm95.845 0c-8.822 0-15.975-7.15-15.975-15.975s7.15-15.976 15.975-15.976 15.975 7.15 15.975 15.975-7.153 15.974-15.975 15.974zm95.843 0c-8.822 0-15.975-7.15-15.975-15.975s7.15-15.976 15.975-15.976 15.975 7.15 15.975 15.975-7.153 15.974-15.975 15.974zm95.844 0c-8.822 0-15.975-7.15-15.975-15.975s7.15-15.976 15.975-15.976 15.975 7.15 15.975 15.975-7.153 15.974-15.975 15.974z"/></svg>